<svg width="199" height="50" viewBox="0 0 199 50" fill="none" xmlns="http://www.w3.org/2000/svg">
<rect x="0.5" y="0.5" width="49" height="49" rx="24.5" stroke="#FF5733"/>
<path d="M33.125 17.5H16.875C15.8395 17.5 15 18.3395 15 19.375V30.625C15 31.6605 15.8395 32.5 16.875 32.5H33.125C34.1605 32.5 35 31.6605 35 30.625V19.375C35 18.3395 34.1605 17.5 33.125 17.5ZM33.125 19.375V20.9689C32.2491 21.6822 30.8528 22.7913 27.8677 25.1287C27.2098 25.6462 25.9067 26.8893 25 26.8748C24.0934 26.8895 22.7899 25.646 22.1323 25.1287C19.1477 22.7916 17.751 21.6823 16.875 20.9689V19.375H33.125ZM16.875 30.625V23.3749C17.7701 24.0879 19.0394 25.0883 20.9741 26.6033C21.8279 27.2754 23.3231 28.759 25 28.75C26.6686 28.759 28.1449 27.2969 29.0255 26.6036C30.9602 25.0886 32.2299 24.0879 33.125 23.375V30.625H16.875Z" fill="#FF5733"/>
<path d="M62.9453 18V30H61.0703V18H62.9453ZM62.6172 25.4609L62.0078 25.4531C62.013 24.8698 62.0938 24.3307 62.25 23.8359C62.4115 23.3411 62.6354 22.9115 62.9219 22.5469C63.2135 22.1771 63.5625 21.8932 63.9688 21.6953C64.375 21.4922 64.8255 21.3906 65.3203 21.3906C65.737 21.3906 66.112 21.4479 66.4453 21.5625C66.7839 21.6771 67.0755 21.862 67.3203 22.1172C67.5651 22.3672 67.75 22.6953 67.875 23.1016C68.0052 23.5026 68.0703 23.9922 68.0703 24.5703V30H66.1797V24.5547C66.1797 24.1484 66.1198 23.8255 66 23.5859C65.8854 23.3464 65.7161 23.1745 65.4922 23.0703C65.2682 22.9609 64.9948 22.9062 64.6719 22.9062C64.3333 22.9062 64.0339 22.974 63.7734 23.1094C63.5182 23.2448 63.3047 23.4297 63.1328 23.6641C62.9609 23.8984 62.8307 24.1693 62.7422 24.4766C62.6589 24.7839 62.6172 25.112 62.6172 25.4609ZM73.7031 30.1562C73.0781 30.1562 72.513 30.0547 72.0078 29.8516C71.5078 29.6432 71.0807 29.3542 70.7266 28.9844C70.3776 28.6146 70.1094 28.1797 69.9219 27.6797C69.7344 27.1797 69.6406 26.6406 69.6406 26.0625V25.75C69.6406 25.0885 69.737 24.4896 69.9297 23.9531C70.1224 23.4167 70.3906 22.9583 70.7344 22.5781C71.0781 22.1927 71.4844 21.8984 71.9531 21.6953C72.4219 21.4922 72.9297 21.3906 73.4766 21.3906C74.0807 21.3906 74.6094 21.4922 75.0625 21.6953C75.5156 21.8984 75.8906 22.1849 76.1875 22.5547C76.4896 22.9193 76.7135 23.3542 76.8594 23.8594C77.0104 24.3646 77.0859 24.9219 77.0859 25.5312V26.3359H70.5547V24.9844H75.2266V24.8359C75.2161 24.4974 75.1484 24.1797 75.0234 23.8828C74.9036 23.5859 74.7188 23.3464 74.4688 23.1641C74.2188 22.9818 73.8854 22.8906 73.4688 22.8906C73.1562 22.8906 72.8776 22.9583 72.6328 23.0938C72.3932 23.224 72.1927 23.4141 72.0312 23.6641C71.8698 23.9141 71.7448 24.2161 71.6562 24.5703C71.5729 24.9193 71.5312 25.3125 71.5312 25.75V26.0625C71.5312 26.4323 71.5807 26.776 71.6797 27.0938C71.7839 27.4062 71.9349 27.6797 72.1328 27.9141C72.3307 28.1484 72.5703 28.3333 72.8516 28.4688C73.1328 28.599 73.4531 28.6641 73.8125 28.6641C74.2656 28.6641 74.6693 28.5729 75.0234 28.3906C75.3776 28.2083 75.6849 27.9505 75.9453 27.6172L76.9375 28.5781C76.7552 28.8438 76.5182 29.099 76.2266 29.3438C75.9349 29.5833 75.5781 29.7786 75.1562 29.9297C74.7396 30.0807 74.2552 30.1562 73.7031 30.1562ZM80.5703 18V30H78.6797V18H80.5703ZM84.6484 18V30H82.7578V18H84.6484ZM86.3516 25.8672V25.6875C86.3516 25.0781 86.4401 24.513 86.6172 23.9922C86.7943 23.4661 87.0495 23.0104 87.3828 22.625C87.7214 22.2344 88.1328 21.9323 88.6172 21.7188C89.1068 21.5 89.6589 21.3906 90.2734 21.3906C90.8932 21.3906 91.4453 21.5 91.9297 21.7188C92.4193 21.9323 92.8333 22.2344 93.1719 22.625C93.5104 23.0104 93.7682 23.4661 93.9453 23.9922C94.1224 24.513 94.2109 25.0781 94.2109 25.6875V25.8672C94.2109 26.4766 94.1224 27.0417 93.9453 27.5625C93.7682 28.0833 93.5104 28.5391 93.1719 28.9297C92.8333 29.3151 92.4219 29.6172 91.9375 29.8359C91.4531 30.0495 90.9036 30.1562 90.2891 30.1562C89.6693 30.1562 89.1146 30.0495 88.625 29.8359C88.1406 29.6172 87.7292 29.3151 87.3906 28.9297C87.0521 28.5391 86.7943 28.0833 86.6172 27.5625C86.4401 27.0417 86.3516 26.4766 86.3516 25.8672ZM88.2344 25.6875V25.8672C88.2344 26.2474 88.2734 26.6068 88.3516 26.9453C88.4297 27.2839 88.5521 27.5807 88.7188 27.8359C88.8854 28.0911 89.099 28.2917 89.3594 28.4375C89.6198 28.5833 89.9297 28.6562 90.2891 28.6562C90.638 28.6562 90.9401 28.5833 91.1953 28.4375C91.4557 28.2917 91.6693 28.0911 91.8359 27.8359C92.0026 27.5807 92.125 27.2839 92.2031 26.9453C92.2865 26.6068 92.3281 26.2474 92.3281 25.8672V25.6875C92.3281 25.3125 92.2865 24.9583 92.2031 24.625C92.125 24.2865 92 23.987 91.8281 23.7266C91.6615 23.4661 91.4479 23.263 91.1875 23.1172C90.9323 22.9661 90.6276 22.8906 90.2734 22.8906C89.9193 22.8906 89.612 22.9661 89.3516 23.1172C89.0964 23.263 88.8854 23.4661 88.7188 23.7266C88.5521 23.987 88.4297 24.2865 88.3516 24.625C88.2734 24.9583 88.2344 25.3125 88.2344 25.6875ZM100.555 28.3047V24.2734C100.555 23.9714 100.5 23.7109 100.391 23.4922C100.281 23.2734 100.115 23.1042 99.8906 22.9844C99.6719 22.8646 99.3958 22.8047 99.0625 22.8047C98.7552 22.8047 98.4896 22.8568 98.2656 22.9609C98.0417 23.0651 97.8672 23.2057 97.7422 23.3828C97.6172 23.5599 97.5547 23.7604 97.5547 23.9844H95.6797C95.6797 23.651 95.7604 23.3281 95.9219 23.0156C96.0833 22.7031 96.3177 22.4245 96.625 22.1797C96.9323 21.9349 97.2995 21.7422 97.7266 21.6016C98.1536 21.4609 98.6328 21.3906 99.1641 21.3906C99.7995 21.3906 100.362 21.4974 100.852 21.7109C101.346 21.9245 101.734 22.2474 102.016 22.6797C102.302 23.1068 102.445 23.6432 102.445 24.2891V28.0469C102.445 28.4323 102.471 28.7786 102.523 29.0859C102.581 29.388 102.661 29.651 102.766 29.875V30H100.836C100.747 29.7969 100.677 29.5391 100.625 29.2266C100.578 28.9089 100.555 28.6016 100.555 28.3047ZM100.828 24.8594L100.844 26.0234H99.4922C99.1432 26.0234 98.8359 26.0573 98.5703 26.125C98.3047 26.1875 98.0833 26.2812 97.9062 26.4062C97.7292 26.5312 97.5964 26.6823 97.5078 26.8594C97.4193 27.0365 97.375 27.237 97.375 27.4609C97.375 27.6849 97.4271 27.8906 97.5312 28.0781C97.6354 28.2604 97.7865 28.4036 97.9844 28.5078C98.1875 28.612 98.4323 28.6641 98.7188 28.6641C99.1042 28.6641 99.4401 28.5859 99.7266 28.4297C100.018 28.2682 100.247 28.0729 100.414 27.8438C100.581 27.6094 100.669 27.388 100.68 27.1797L101.289 28.0156C101.227 28.2292 101.12 28.4583 100.969 28.7031C100.818 28.9479 100.62 29.1823 100.375 29.4062C100.135 29.625 99.8464 29.8047 99.5078 29.9453C99.1745 30.0859 98.7891 30.1562 98.3516 30.1562C97.7995 30.1562 97.3073 30.0469 96.875 29.8281C96.4427 29.6042 96.1042 29.3047 95.8594 28.9297C95.6146 28.5495 95.4922 28.1198 95.4922 27.6406C95.4922 27.1927 95.5755 26.7969 95.7422 26.4531C95.9141 26.1042 96.1641 25.8125 96.4922 25.5781C96.8255 25.3438 97.2318 25.1667 97.7109 25.0469C98.1901 24.9219 98.737 24.8594 99.3516 24.8594H100.828ZM106.43 18V30H104.539V18H106.43ZM112.219 30.1562C111.594 30.1562 111.029 30.0547 110.523 29.8516C110.023 29.6432 109.596 29.3542 109.242 28.9844C108.893 28.6146 108.625 28.1797 108.438 27.6797C108.25 27.1797 108.156 26.6406 108.156 26.0625V25.75C108.156 25.0885 108.253 24.4896 108.445 23.9531C108.638 23.4167 108.906 22.9583 109.25 22.5781C109.594 22.1927 110 21.8984 110.469 21.6953C110.938 21.4922 111.445 21.3906 111.992 21.3906C112.596 21.3906 113.125 21.4922 113.578 21.6953C114.031 21.8984 114.406 22.1849 114.703 22.5547C115.005 22.9193 115.229 23.3542 115.375 23.8594C115.526 24.3646 115.602 24.9219 115.602 25.5312V26.3359H109.07V24.9844H113.742V24.8359C113.732 24.4974 113.664 24.1797 113.539 23.8828C113.419 23.5859 113.234 23.3464 112.984 23.1641C112.734 22.9818 112.401 22.8906 111.984 22.8906C111.672 22.8906 111.393 22.9583 111.148 23.0938C110.909 23.224 110.708 23.4141 110.547 23.6641C110.385 23.9141 110.26 24.2161 110.172 24.5703C110.089 24.9193 110.047 25.3125 110.047 25.75V26.0625C110.047 26.4323 110.096 26.776 110.195 27.0938C110.299 27.4062 110.451 27.6797 110.648 27.9141C110.846 28.1484 111.086 28.3333 111.367 28.4688C111.648 28.599 111.969 28.6641 112.328 28.6641C112.781 28.6641 113.185 28.5729 113.539 28.3906C113.893 28.2083 114.201 27.9505 114.461 27.6172L115.453 28.5781C115.271 28.8438 115.034 29.099 114.742 29.3438C114.451 29.5833 114.094 29.7786 113.672 29.9297C113.255 30.0807 112.771 30.1562 112.219 30.1562ZM118.508 21.5469L120.117 24.3516L121.758 21.5469H123.828L121.266 25.6953L123.93 30H121.859L120.141 27.0781L118.422 30H116.344L119 25.6953L116.445 21.5469H118.508ZM125.195 29.0625C125.195 28.7708 125.294 28.526 125.492 28.3281C125.69 28.125 125.958 28.0234 126.297 28.0234C126.641 28.0234 126.909 28.125 127.102 28.3281C127.299 28.526 127.398 28.7708 127.398 29.0625C127.398 29.3542 127.299 29.599 127.102 29.7969C126.909 29.9948 126.641 30.0938 126.297 30.0938C125.958 30.0938 125.69 29.9948 125.492 29.7969C125.294 29.599 125.195 29.3542 125.195 29.0625ZM134.727 28.25V18H136.617V30H134.906L134.727 28.25ZM129.227 25.8672V25.7031C129.227 25.0625 129.302 24.4792 129.453 23.9531C129.604 23.4219 129.823 22.9661 130.109 22.5859C130.396 22.2005 130.745 21.9062 131.156 21.7031C131.568 21.4948 132.031 21.3906 132.547 21.3906C133.057 21.3906 133.505 21.4896 133.891 21.6875C134.276 21.8854 134.604 22.1693 134.875 22.5391C135.146 22.9036 135.362 23.3411 135.523 23.8516C135.685 24.3568 135.799 24.9193 135.867 25.5391V26.0625C135.799 26.6667 135.685 27.2188 135.523 27.7188C135.362 28.2188 135.146 28.651 134.875 29.0156C134.604 29.3802 134.273 29.6615 133.883 29.8594C133.497 30.0573 133.047 30.1562 132.531 30.1562C132.021 30.1562 131.56 30.0495 131.148 29.8359C130.742 29.6224 130.396 29.3229 130.109 28.9375C129.823 28.5521 129.604 28.099 129.453 27.5781C129.302 27.0521 129.227 26.4818 129.227 25.8672ZM131.109 25.7031V25.8672C131.109 26.2526 131.143 26.612 131.211 26.9453C131.284 27.2786 131.396 27.5729 131.547 27.8281C131.698 28.0781 131.893 28.276 132.133 28.4219C132.378 28.5625 132.669 28.6328 133.008 28.6328C133.435 28.6328 133.786 28.5391 134.062 28.3516C134.339 28.1641 134.555 27.9115 134.711 27.5938C134.872 27.2708 134.982 26.9115 135.039 26.5156V25.1016C135.008 24.7943 134.943 24.5078 134.844 24.2422C134.75 23.9766 134.622 23.7448 134.461 23.5469C134.299 23.3438 134.099 23.1875 133.859 23.0781C133.625 22.9635 133.346 22.9062 133.023 22.9062C132.68 22.9062 132.388 22.9792 132.148 23.125C131.909 23.2708 131.711 23.4714 131.555 23.7266C131.404 23.9818 131.292 24.2786 131.219 24.6172C131.146 24.9557 131.109 25.3177 131.109 25.7031ZM142.312 30.1562C141.688 30.1562 141.122 30.0547 140.617 29.8516C140.117 29.6432 139.69 29.3542 139.336 28.9844C138.987 28.6146 138.719 28.1797 138.531 27.6797C138.344 27.1797 138.25 26.6406 138.25 26.0625V25.75C138.25 25.0885 138.346 24.4896 138.539 23.9531C138.732 23.4167 139 22.9583 139.344 22.5781C139.688 22.1927 140.094 21.8984 140.562 21.6953C141.031 21.4922 141.539 21.3906 142.086 21.3906C142.69 21.3906 143.219 21.4922 143.672 21.6953C144.125 21.8984 144.5 22.1849 144.797 22.5547C145.099 22.9193 145.323 23.3542 145.469 23.8594C145.62 24.3646 145.695 24.9219 145.695 25.5312V26.3359H139.164V24.9844H143.836V24.8359C143.826 24.4974 143.758 24.1797 143.633 23.8828C143.513 23.5859 143.328 23.3464 143.078 23.1641C142.828 22.9818 142.495 22.8906 142.078 22.8906C141.766 22.8906 141.487 22.9583 141.242 23.0938C141.003 23.224 140.802 23.4141 140.641 23.6641C140.479 23.9141 140.354 24.2161 140.266 24.5703C140.182 24.9193 140.141 25.3125 140.141 25.75V26.0625C140.141 26.4323 140.19 26.776 140.289 27.0938C140.393 27.4062 140.544 27.6797 140.742 27.9141C140.94 28.1484 141.18 28.3333 141.461 28.4688C141.742 28.599 142.062 28.6641 142.422 28.6641C142.875 28.6641 143.279 28.5729 143.633 28.3906C143.987 28.2083 144.294 27.9505 144.555 27.6172L145.547 28.5781C145.365 28.8438 145.128 29.099 144.836 29.3438C144.544 29.5833 144.188 29.7786 143.766 29.9297C143.349 30.0807 142.865 30.1562 142.312 30.1562ZM149.805 28.5078L151.875 21.5469H153.828L150.891 30H149.672L149.805 28.5078ZM148.219 21.5469L150.328 28.5391L150.43 30H149.211L146.258 21.5469H148.219ZM158.609 30.1562C157.984 30.1562 157.419 30.0547 156.914 29.8516C156.414 29.6432 155.987 29.3542 155.633 28.9844C155.284 28.6146 155.016 28.1797 154.828 27.6797C154.641 27.1797 154.547 26.6406 154.547 26.0625V25.75C154.547 25.0885 154.643 24.4896 154.836 23.9531C155.029 23.4167 155.297 22.9583 155.641 22.5781C155.984 22.1927 156.391 21.8984 156.859 21.6953C157.328 21.4922 157.836 21.3906 158.383 21.3906C158.987 21.3906 159.516 21.4922 159.969 21.6953C160.422 21.8984 160.797 22.1849 161.094 22.5547C161.396 22.9193 161.62 23.3542 161.766 23.8594C161.917 24.3646 161.992 24.9219 161.992 25.5312V26.3359H155.461V24.9844H160.133V24.8359C160.122 24.4974 160.055 24.1797 159.93 23.8828C159.81 23.5859 159.625 23.3464 159.375 23.1641C159.125 22.9818 158.792 22.8906 158.375 22.8906C158.062 22.8906 157.784 22.9583 157.539 23.0938C157.299 23.224 157.099 23.4141 156.938 23.6641C156.776 23.9141 156.651 24.2161 156.562 24.5703C156.479 24.9193 156.438 25.3125 156.438 25.75V26.0625C156.438 26.4323 156.487 26.776 156.586 27.0938C156.69 27.4062 156.841 27.6797 157.039 27.9141C157.237 28.1484 157.477 28.3333 157.758 28.4688C158.039 28.599 158.359 28.6641 158.719 28.6641C159.172 28.6641 159.576 28.5729 159.93 28.3906C160.284 28.2083 160.591 27.9505 160.852 27.6172L161.844 28.5781C161.661 28.8438 161.424 29.099 161.133 29.3438C160.841 29.5833 160.484 29.7786 160.062 29.9297C159.646 30.0807 159.161 30.1562 158.609 30.1562ZM165.477 18V30H163.586V18H165.477ZM167.18 25.8672V25.6875C167.18 25.0781 167.268 24.513 167.445 23.9922C167.622 23.4661 167.878 23.0104 168.211 22.625C168.549 22.2344 168.961 21.9323 169.445 21.7188C169.935 21.5 170.487 21.3906 171.102 21.3906C171.721 21.3906 172.273 21.5 172.758 21.7188C173.247 21.9323 173.661 22.2344 174 22.625C174.339 23.0104 174.596 23.4661 174.773 23.9922C174.951 24.513 175.039 25.0781 175.039 25.6875V25.8672C175.039 26.4766 174.951 27.0417 174.773 27.5625C174.596 28.0833 174.339 28.5391 174 28.9297C173.661 29.3151 173.25 29.6172 172.766 29.8359C172.281 30.0495 171.732 30.1562 171.117 30.1562C170.497 30.1562 169.943 30.0495 169.453 29.8359C168.969 29.6172 168.557 29.3151 168.219 28.9297C167.88 28.5391 167.622 28.0833 167.445 27.5625C167.268 27.0417 167.18 26.4766 167.18 25.8672ZM169.062 25.6875V25.8672C169.062 26.2474 169.102 26.6068 169.18 26.9453C169.258 27.2839 169.38 27.5807 169.547 27.8359C169.714 28.0911 169.927 28.2917 170.188 28.4375C170.448 28.5833 170.758 28.6562 171.117 28.6562C171.466 28.6562 171.768 28.5833 172.023 28.4375C172.284 28.2917 172.497 28.0911 172.664 27.8359C172.831 27.5807 172.953 27.2839 173.031 26.9453C173.115 26.6068 173.156 26.2474 173.156 25.8672V25.6875C173.156 25.3125 173.115 24.9583 173.031 24.625C172.953 24.2865 172.828 23.987 172.656 23.7266C172.49 23.4661 172.276 23.263 172.016 23.1172C171.76 22.9661 171.456 22.8906 171.102 22.8906C170.747 22.8906 170.44 22.9661 170.18 23.1172C169.924 23.263 169.714 23.4661 169.547 23.7266C169.38 23.987 169.258 24.2865 169.18 24.625C169.102 24.9583 169.062 25.3125 169.062 25.6875ZM178.508 23.1719V33.25H176.625V21.5469H178.359L178.508 23.1719ZM184.016 25.6953V25.8594C184.016 26.474 183.943 27.0443 183.797 27.5703C183.656 28.0911 183.445 28.5469 183.164 28.9375C182.888 29.3229 182.547 29.6224 182.141 29.8359C181.734 30.0495 181.266 30.1562 180.734 30.1562C180.208 30.1562 179.747 30.0599 179.352 29.8672C178.961 29.6693 178.63 29.3906 178.359 29.0312C178.089 28.6719 177.87 28.25 177.703 27.7656C177.542 27.276 177.427 26.7396 177.359 26.1562V25.5234C177.427 24.9036 177.542 24.3411 177.703 23.8359C177.87 23.3307 178.089 22.8958 178.359 22.5312C178.63 22.1667 178.961 21.8854 179.352 21.6875C179.742 21.4896 180.198 21.3906 180.719 21.3906C181.25 21.3906 181.721 21.4948 182.133 21.7031C182.544 21.9062 182.891 22.1979 183.172 22.5781C183.453 22.9531 183.664 23.4062 183.805 23.9375C183.945 24.4635 184.016 25.0495 184.016 25.6953ZM182.133 25.8594V25.6953C182.133 25.3047 182.096 24.9427 182.023 24.6094C181.951 24.2708 181.836 23.974 181.68 23.7188C181.523 23.4635 181.323 23.2656 181.078 23.125C180.839 22.9792 180.549 22.9062 180.211 22.9062C179.878 22.9062 179.591 22.9635 179.352 23.0781C179.112 23.1875 178.911 23.3411 178.75 23.5391C178.589 23.737 178.464 23.9688 178.375 24.2344C178.286 24.4948 178.224 24.7786 178.188 25.0859V26.6016C178.25 26.9766 178.357 27.3203 178.508 27.6328C178.659 27.9453 178.872 28.1953 179.148 28.3828C179.43 28.5651 179.789 28.6562 180.227 28.6562C180.565 28.6562 180.854 28.5833 181.094 28.4375C181.333 28.2917 181.529 28.0911 181.68 27.8359C181.836 27.5755 181.951 27.276 182.023 26.9375C182.096 26.599 182.133 26.2396 182.133 25.8594ZM189.344 30.1562C188.719 30.1562 188.154 30.0547 187.648 29.8516C187.148 29.6432 186.721 29.3542 186.367 28.9844C186.018 28.6146 185.75 28.1797 185.562 27.6797C185.375 27.1797 185.281 26.6406 185.281 26.0625V25.75C185.281 25.0885 185.378 24.4896 185.57 23.9531C185.763 23.4167 186.031 22.9583 186.375 22.5781C186.719 22.1927 187.125 21.8984 187.594 21.6953C188.062 21.4922 188.57 21.3906 189.117 21.3906C189.721 21.3906 190.25 21.4922 190.703 21.6953C191.156 21.8984 191.531 22.1849 191.828 22.5547C192.13 22.9193 192.354 23.3542 192.5 23.8594C192.651 24.3646 192.727 24.9219 192.727 25.5312V26.3359H186.195V24.9844H190.867V24.8359C190.857 24.4974 190.789 24.1797 190.664 23.8828C190.544 23.5859 190.359 23.3464 190.109 23.1641C189.859 22.9818 189.526 22.8906 189.109 22.8906C188.797 22.8906 188.518 22.9583 188.273 23.0938C188.034 23.224 187.833 23.4141 187.672 23.6641C187.51 23.9141 187.385 24.2161 187.297 24.5703C187.214 24.9193 187.172 25.3125 187.172 25.75V26.0625C187.172 26.4323 187.221 26.776 187.32 27.0938C187.424 27.4062 187.576 27.6797 187.773 27.9141C187.971 28.1484 188.211 28.3333 188.492 28.4688C188.773 28.599 189.094 28.6641 189.453 28.6641C189.906 28.6641 190.31 28.5729 190.664 28.3906C191.018 28.2083 191.326 27.9505 191.586 27.6172L192.578 28.5781C192.396 28.8438 192.159 29.099 191.867 29.3438C191.576 29.5833 191.219 29.7786 190.797 29.9297C190.38 30.0807 189.896 30.1562 189.344 30.1562ZM196.086 23.1562V30H194.203V21.5469H196L196.086 23.1562ZM198.672 21.4922L198.656 23.2422C198.542 23.2214 198.417 23.2057 198.281 23.1953C198.151 23.1849 198.021 23.1797 197.891 23.1797C197.568 23.1797 197.284 23.2266 197.039 23.3203C196.794 23.4089 196.589 23.5391 196.422 23.7109C196.26 23.8776 196.135 24.0807 196.047 24.3203C195.958 24.5599 195.906 24.8281 195.891 25.125L195.461 25.1562C195.461 24.625 195.513 24.1328 195.617 23.6797C195.721 23.2266 195.878 22.8281 196.086 22.4844C196.299 22.1406 196.565 21.8724 196.883 21.6797C197.206 21.487 197.578 21.3906 198 21.3906C198.115 21.3906 198.237 21.401 198.367 21.4219C198.503 21.4427 198.604 21.4661 198.672 21.4922Z" fill="#222222"/>
</svg>
